<svg xmlns="http://www.w3.org/2000/svg" width="162.09" height="162.152" viewBox="0 0 162.09 162.152"><g transform="matrix(-0.07, 0.998, -0.998, -0.07, 1260.013, -1082.482)"><g transform="translate(1167 1019)"><g transform="translate(0 0)"><path d="M558.9,443.253l-.731-1.457,5.52-2.769-5.721.608-.773-1.541,3.867-4.2-5.479,2.748-.731-1.457,7.313-3.667,1.071,2.136-3.982,4.376,5.887-.579,1.071,2.136Z" transform="translate(-420.411 -393.789)" fill="#8d8d8d"/><path d="M571.9,474.611l-.552-1.534,7.7-2.768.552,1.534Z" transform="translate(-431.96 -420.961)" fill="#8d8d8d"/><path d="M577.787,494.868l-1.5-5.924,7.928-2.008,1.489,5.878-1.45.367-1.088-4.3-1.755.445,1.038,4.1L581,493.8l-1.038-4.1-1.823.462,1.1,4.343Z" transform="translate(-435.421 -432.607)" fill="#8d8d8d"/><path d="M583.98,528.851l-.16-1.622,6.144-.607-5.558-1.482-.169-1.715,5.114-2.536-6.1.6-.16-1.622,8.138-.8.234,2.377-5.284,2.658,5.7,1.568.234,2.377Z" transform="translate(-440.189 -455.113)" fill="#8d8d8d"/><path d="M593.4,564.65c-.1,1.9-.874,3.059-2.432,2.974a1.825,1.825,0,0,1-1.668-1.278,1.964,1.964,0,0,1-1.906,1.259c-1.569-.085-2.279-1.242-2.172-3.2l.193-3.535,8.167.444Zm-4.679-1.969-1.96-.106-.1,1.826c-.049.9.13,1.476.912,1.518.764.042,1.005-.513,1.054-1.411Zm3.337.182-1.907-.1-.091,1.668c-.044.811.091,1.45.884,1.493.77.042.98-.59,1.023-1.4Z" transform="translate(-441.675 -484.392)" fill="#8d8d8d"/><path d="M588.224,595.732c-.362,1.916-1.463,2.772-3,2.482a2.429,2.429,0,0,1-1.9-2.91l-3.687,1.865.366-1.94,3.639-1.737.089-.471-3.2-.6.3-1.6,8.034,1.518Zm-1.136-2.075-1.968-.372-.334,1.768c-.165.872.071,1.386.748,1.514s1.06-.293,1.22-1.142Z" transform="translate(-437.764 -505.369)" fill="#8d8d8d"/><path d="M575.029,630.385a4.3,4.3,0,1,1,5.408-2.692A4.126,4.126,0,0,1,575.029,630.385Zm2.237-6.523a2.6,2.6,0,1,0,1.69,3.323A2.53,2.53,0,0,0,577.266,623.862Z" transform="translate(-432.521 -527.209)" fill="#8d8d8d"/><path d="M555.055,676.788l-.02-1.644a2.448,2.448,0,0,0,2.052-1.239,2.676,2.676,0,1,0-4.724-.335l-1.505.653a4.271,4.271,0,1,1,7.568.494A3.972,3.972,0,0,1,555.055,676.788Z" transform="translate(-417.359 -559.576)" fill="#8d8d8d"/><path d="M529.8,696.791l3.8-4.783,6.4,5.089-3.773,4.745-1.17-.93,2.759-3.47-1.417-1.127-2.632,3.31-1.171-.93,2.632-3.311-1.472-1.17-2.788,3.507Z" transform="translate(-402.862 -576.246)" fill="#8d8d8d"/><path d="M516.339,722.639c-1.4,1.358-2.795,1.423-3.885.3a2.43,2.43,0,0,1,.12-3.477l-4.089-.6,1.418-1.374,3.976.678.344-.333-2.265-2.337,1.17-1.134,5.693,5.873Zm.268-2.351-1.4-1.439L513.92,720.1c-.638.618-.741,1.174-.262,1.669s1.035.371,1.656-.23Z" transform="translate(-387.931 -591.9)" fill="#8d8d8d"/><path d="M495.14,745.834l2.027-1.522-3.994-5.32,1.3-.978,3.994,5.32,2.027-1.522.915,1.219-5.358,4.022Z" transform="translate(-377.206 -608.469)" fill="#8d8d8d"/><path d="M475.743,750.849l1.388-.853,4.282,6.964-1.388.853Z" transform="translate(-364.997 -616.862)" fill="#8d8d8d"/><path d="M455.274,763.2l3.683-1.8-1.458-2.975,1.464-.717,3.6,7.345-5.393,2.644-.661-1.349,3.929-1.926-.82-1.674-3.683,1.805Z" transform="translate(-350.66 -622.258)" fill="#8d8d8d"/><path d="M436.8,770l1.525-.575,2.883,7.65-1.525.575Z" transform="translate(-337.723 -630.473)" fill="#8d8d8d"/><path d="M406.716,784.393l1.14-1.186a2.449,2.449,0,0,0,2.332.556,2.678,2.678,0,0,0-1.354-5.179,2.5,2.5,0,0,0-1.78,1.625l-1.532-.59a4.272,4.272,0,1,1,5.05,5.662A3.975,3.975,0,0,1,406.716,784.393Z" transform="translate(-315.813 -635.713)" fill="#8d8d8d"/><path d="M371.661,782.807l1.729-.2.929,1.809,3.465-.4.487-1.974,1.689-.2-2.214,8.495-1.974.23Zm5.74,2.759-2.35.275,1.539,3Z" transform="translate(-292.095 -639.165)" fill="#8d8d8d"/><path d="M343.5,793.09a4.092,4.092,0,1,1,.221-8.175l3.369.091-.221,8.174Zm1.782-1.477.138-5.127-1.723-.046a2.564,2.564,0,0,0-.138,5.127Z" transform="translate(-269.471 -641.319)" fill="#8d8d8d"/><path d="M295.855,786.594c-1.855-.427-2.864-1.384-2.514-2.9a1.823,1.823,0,0,1,1.544-1.424,1.963,1.963,0,0,1-.915-2.092c.352-1.531,1.612-2.032,3.524-1.592l3.448.794-1.833,7.967Zm1.989-1.016.428-1.86-1.628-.375c-.791-.182-1.444-.158-1.622.615-.173.751.414,1.066,1.2,1.247Zm.749-3.255.44-1.912-1.78-.416c-.876-.2-1.476-.123-1.651.639-.171.745.334,1.077,1.21,1.279Z" transform="translate(-237.189 -636.778)" fill="#8d8d8d"/><path d="M259.372,774.177l1.511-.65A2.669,2.669,0,1,0,264.394,770a2.1,2.1,0,0,0-2.82.845l1.94.75-.491,1.27-3.51-1.357a4.21,4.21,0,0,1,.144-.439,3.962,3.962,0,0,1,5.251-2.5,4.241,4.241,0,1,1-5.537,5.6Z" transform="translate(-213.445 -629.672)" fill="#8d8d8d"/><path d="M230.689,761.332c-1.661-.93-2.361-2.131-1.6-3.492a1.823,1.823,0,0,1,1.882-.935,1.963,1.963,0,0,1-.291-2.265c.768-1.371,2.117-1.5,3.83-.54l3.088,1.729-3.994,7.135Zm2.2-.418.933-1.667-1.458-.816c-.708-.4-1.342-.557-1.729.136-.377.673.1,1.14.8,1.533ZM234.516,758l.959-1.712-1.593-.9c-.785-.439-1.382-.532-1.764.15-.374.667.018,1.128.8,1.567Z" transform="translate(-192.019 -619.302)" fill="#8d8d8d"/><path d="M143.5,666.059l.863,1.382-5.236,3.271,5.638-1.139.913,1.462-3.457,4.542,5.2-3.246.863,1.382-6.935,4.332-1.266-2.026,3.555-4.727-5.8,1.126-1.265-2.026Z" transform="translate(-127.43 -558.07)" fill="#8d8d8d"/><path d="M136.278,652.586l.692,1.474-7.4,3.473-.692-1.475Z" transform="translate(-122.043 -548.633)" fill="#8d8d8d"/><path d="M124.846,624.745l2.046,5.76-7.708,2.738-2.03-5.715,1.41-.5,1.484,4.179,1.707-.606-1.416-3.986,1.409-.5,1.416,3.986,1.773-.63-1.5-4.223Z" transform="translate(-113.83 -529.133)" fill="#8d8d8d"/><path d="M115.736,587.042l.311,1.6-6.061,1.179,5.673.955.329,1.692-4.855,3,6.015-1.17.311,1.6-8.028,1.562-.456-2.345,5.013-3.141-5.823-1.028-.456-2.345Z" transform="translate(-107.215 -502.724)" fill="#8d8d8d"/><path d="M106.085,559.646c-.075-1.9.583-3.127,2.141-3.189a1.824,1.824,0,0,1,1.78,1.116,1.964,1.964,0,0,1,1.779-1.432c1.57-.062,2.384,1.022,2.462,2.983l.14,3.536-8.17.324Zm1.5,1.653,1.909-.076-.067-1.669c-.032-.811-.226-1.435-1.02-1.4-.77.031-.92.679-.888,1.485Zm3.338-.133,1.961-.078-.067-1.827c-.036-.9-.268-1.456-1.05-1.426-.765.031-.952.605-.917,1.5Z" transform="translate(-106.074 -481.079)" fill="#8d8d8d"/><path d="M106.378,527.417c.179-1.943,1.194-2.9,2.753-2.756a2.43,2.43,0,0,1,2.173,2.717l3.494-2.207-.181,1.966-3.459,2.075-.044.477,3.24.3-.149,1.623-8.144-.75Zm1.327,1.958,2,.184.165-1.791c.082-.884-.2-1.374-.888-1.437s-1.028.392-1.107,1.253Z" transform="translate(-106.061 -459.021)" fill="#8d8d8d"/><path d="M117.2,488.506a4.3,4.3,0,1,1-5.129,3.192A4.126,4.126,0,0,1,117.2,488.506Zm-1.609,6.705a2.6,2.6,0,1,0-2-3.148A2.53,2.53,0,0,0,115.586,495.212Z" transform="translate(-110.171 -433.615)" fill="#8d8d8d"/><path d="M132.633,440.616l.173,1.635a2.448,2.448,0,0,0-1.927,1.425,2.677,2.677,0,0,0,4.832,2.3,2.5,2.5,0,0,0-.1-2.407l1.437-.791a4.271,4.271,0,1,1-7.582.215A3.972,3.972,0,0,1,132.633,440.616Z" transform="translate(-122.129 -400.163)" fill="#8d8d8d"/><path d="M152.118,415.729l-3.413,5.07-6.785-4.568,3.387-5.031,1.241.835-2.477,3.679,1.5,1.011,2.362-3.509,1.241.835-2.362,3.509,1.56,1.051,2.5-3.717Z" transform="translate(-131.178 -379.559)" fill="#8d8d8d"/><path d="M162.54,389.771c1.267-1.483,2.648-1.679,3.839-.661a2.429,2.429,0,0,1,.206,3.473l4.127.215-1.283,1.5-4.022-.3-.311.364,2.474,2.114-1.059,1.239-6.217-5.313Zm-.047,2.365,1.523,1.3,1.169-1.368c.577-.675.628-1.239.1-1.686s-1.065-.273-1.627.384Z" transform="translate(-144.047 -363.642)" fill="#8d8d8d"/><path d="M186.5,364.851l-1.873,1.707,4.48,4.916-1.2,1.1-4.48-4.916-1.873,1.707-1.027-1.126,4.951-4.512Z" transform="translate(-158.219 -346.306)" fill="#8d8d8d"/><path d="M210.884,361.173l-1.3.981-4.921-6.532,1.3-.981Z" transform="translate(-175.123 -339.944)" fill="#8d8d8d"/><path d="M226.249,341.376l-3.5,2.144,1.731,2.824-1.39.852-4.275-6.975,5.122-3.139.785,1.28-3.731,2.288.974,1.589,3.5-2.144Z" transform="translate(-185.039 -327.646)" fill="#8d8d8d"/><path d="M250.66,337.167l-1.465.715-3.588-7.352,1.465-.715Z" transform="translate(-203.803 -322.555)" fill="#8d8d8d"/><path d="M270.91,319.512l-1.024,1.287a2.448,2.448,0,0,0-2.373-.336,2.678,2.678,0,0,0,1.831,5.029,2.5,2.5,0,0,0,1.62-1.783l1.58.445a4.272,4.272,0,1,1-5.555-5.165A3.973,3.973,0,0,1,270.91,319.512Z" transform="translate(-216.769 -314.771)" fill="#8d8d8d"/><path d="M306.942,317.457l-1.7.362-1.093-1.714-3.41.726-.3,2.011-1.663.354,1.41-8.661,1.942-.413Zm-5.97-2.21,2.314-.493-1.812-2.845Z" transform="translate(-241.042 -308.761)" fill="#8d8d8d"/><path d="M334.043,305.835a4.092,4.092,0,1,1,.544,8.16l-3.363.224-.544-8.16Zm-1.636,1.637.341,5.118,1.72-.115a2.564,2.564,0,0,0-.341-5.118Z" transform="translate(-263.39 -305.75)" fill="#8d8d8d"/><path d="M374.091,310.189a4.3,4.3,0,1,1-3.925-4.591A4.125,4.125,0,0,1,374.091,310.189Zm-6.869-.584a2.6,2.6,0,1,0,2.811-2.447A2.528,2.528,0,0,0,367.222,309.605Z" transform="translate(-287.787 -305.58)" fill="#8d8d8d"/><path d="M419.123,313.619c1.826.541,2.773,1.559,2.33,3.054A1.823,1.823,0,0,1,419.824,318a1.963,1.963,0,0,1,.784,2.145c-.446,1.506-1.735,1.928-3.616,1.371l-3.393-1.005,2.323-7.839Zm-3,4.094-.558,1.882,1.751.525c.862.256,1.465.214,1.688-.536.217-.734-.266-1.1-1.128-1.351Zm.949-3.2-.543,1.831,1.6.475c.778.231,1.431.247,1.657-.514.219-.739-.347-1.09-1.12-1.318Z" transform="translate(-321.469 -310.546)" fill="#8d8d8d"/><path d="M453.69,329.42l-1.547.556a2.668,2.668,0,1,0-3.717,3.3,2.1,2.1,0,0,0,2.865-.672l-1.89-.867.567-1.237,3.419,1.568a4.209,4.209,0,0,1-.171.429,3.96,3.96,0,0,1-5.391,2.173,4.238,4.238,0,1,1,5.865-5.251Z" transform="translate(-343.66 -320.263)" fill="#8d8d8d"/><path d="M479.981,341.516c1.614,1.011,2.254,2.246,1.426,3.568a1.824,1.824,0,0,1-1.927.841,1.964,1.964,0,0,1,.18,2.278c-.835,1.332-2.19,1.393-3.853.35l-3-1.88,4.343-6.931Zm-3.988,3.141-1.043,1.664,1.547.976c.763.478,1.354.6,1.77-.063s.038-1.128-.725-1.605Zm1.774-2.832-1.014,1.619,1.416.887c.688.431,1.313.622,1.734-.051.41-.654-.042-1.143-.725-1.572Z" transform="translate(-362.94 -329.508)" fill="#8d8d8d"/></g><circle cx="3.154" cy="3.154" r="3.154" transform="translate(123.461 29.752) rotate(-67.5)" fill="#8d8d8d"/><circle cx="3.154" cy="3.154" r="3.154" transform="translate(23.216 125.851)" fill="#8d8d8d"/></g></g><g transform="translate(42.952 42.603)"><path d="M232.48,499.89q5.583-34.688,11.133-69.194c.393-.03.691-.078.99-.078,6.053.021,12.1.016,18.155.078a26.385,26.385,0,0,1,10.3,1.9,13.783,13.783,0,0,1,6.887,6.256,16.861,16.861,0,0,1-5.186,21.424c-.887.629-1.835,1.185-2.824,1.829.35.171.608.313.876.428,6.62,2.918,8.691,8.155,8.371,14.154a23.223,23.223,0,0,1-2.795,10.083,24.406,24.406,0,0,1-5.7,6.815,26.178,26.178,0,0,1-12.124,5.577,35.5,35.5,0,0,1-4.506.556c-1.546.112-3.093.206-4.65.211-5.9.027-11.793.005-17.691.005C233.345,499.941,232.975,499.9,232.48,499.89Zm17.732-30.307c-.989,6.165-1.958,12.191-2.938,18.265a6.409,6.409,0,0,0,.67.1c2.712-.019,5.443-.016,8.166-.088a16.129,16.129,0,0,0,5.412-1.118,9.656,9.656,0,0,0,6.669-8.73,6.773,6.773,0,0,0-3.9-6.949A12.143,12.143,0,0,0,261.213,470C257.615,469.321,253.986,469.672,250.212,469.583Zm4.341-26.958c-.816,5.053-1.6,9.963-2.4,14.943,2,0,3.845.027,5.69-.011a15.616,15.616,0,0,0,5-.794,7.987,7.987,0,0,0,5.556-5.633c1.165-4.274-.6-7.243-4.907-8.171C260.584,442.353,257.615,442.7,254.553,442.625Z" transform="translate(-232.48 -430.619)" fill="#ef730d" fill-rule="evenodd"/></g><path d="M434.054,585.512a6.968,6.968,0,0,0-.064-.933H434a10.633,10.633,0,0,0-10.492-9.414,15.206,15.206,0,0,0-1.643.045,14.711,14.711,0,0,0-8.315,3.431,15.917,15.917,0,0,0-4.6,5.938,15.13,15.13,0,0,0-.819,2.4c-.058.232-.126.458-.174.7a13.015,13.015,0,0,0-.249,3.551,10.541,10.541,0,0,0,1.581,4.893,10.388,10.388,0,0,0,8.353,5.034q.333.026.672.035c.525,0,.808.011,1.069,0,.231-.005.451-.027.693-.046a15.207,15.207,0,0,0,9.674-4.866,15.593,15.593,0,0,0,3.319-5.051,17.719,17.719,0,0,0,.987-4.74h-.07A6.967,6.967,0,0,0,434.054,585.512Z" transform="translate(-312.24 -489.256)" fill="#ef730d"/></svg>